<svg width="1920" height="1044" viewBox="0 0 1920 1044" fill="none" xmlns="http://www.w3.org/2000/svg">
<path d="M0 0H1920V862H0V0Z" fill="#FFEAF2"/>
<path fill-rule="evenodd" clip-rule="evenodd" d="M0 27.8652L80 112.543C160 197.221 320 366.577 480 366.577C640 366.577 800 197.221 960 231.092C1120 264.963 1280 502.061 1440 637.546C1600 773.031 1760 806.902 1840 823.837L1920 840.773V1044H1840C1760 1044 1600 1044 1440 1044C1280 1044 1120 1044 960 1044C800 1044 640 1044 480 1044C320 1044 160 1044 80 1044H0V27.8652Z" fill="#FFE0EC" fill-opacity="0.4"/>
<path fill-rule="evenodd" clip-rule="evenodd" d="M1920 711.75L1840 753.281C1760 794.812 1600 877.875 1440 850.187C1280 822.5 1120 684.062 960 601C800 517.937 640 490.25 480 504.094C320 517.937 160 573.312 80 601L-2.86102e-05 628.687V1044H80C160 1044 320 1044 480 1044C640 1044 800 1044 960 1044C1120 1044 1280 1044 1440 1044C1600 1044 1760 1044 1840 1044H1920V711.75Z" fill="white"/>
</svg>
