<svg width="51" height="73" viewBox="0 0 51 73" fill="none" xmlns="http://www.w3.org/2000/svg">
<path d="M25.1028 66.6112C24.4537 70.7022 20.6111 73.4924 16.5201 72.8432C12.4292 72.1941 9.63902 68.3516 10.2881 64.2606C10.9372 60.1696 14.7798 57.3795 18.8708 58.0286C22.9617 58.6777 25.7519 62.5203 25.1028 66.6112Z" fill="#FF84B1"/>
<path d="M19.9129 51.9921L16.8963 47.8717C6.17445 33.2865 -0.905368 23.6658 0.708694 13.4933C2.02386 5.20466 9.03245 -0.359783 16.6373 0.846878C20.9336 1.52856 24.7111 4.36264 26.8559 8.23432C30.0938 5.2167 34.5631 3.69115 38.8593 4.37283C46.4642 5.57949 51.4061 13.0401 50.0909 21.3288C48.4769 31.5013 38.7667 38.4579 24.0524 49.0348L19.9129 51.9921Z" fill="#FF84B1"/>
</svg>
